<svg width="151" height="21" viewBox="0 0 151 21" fill="none" xmlns="http://www.w3.org/2000/svg">
<g clip-path="url(#clip0_3011_12039)">
<path fill-rule="evenodd" clip-rule="evenodd" d="M75.067 11.9469C75.067 15.6836 72.4092 18.6835 69.0409 18.6835C67.4094 18.6835 65.8568 17.9467 65.2253 16.8941V18.4204H61.5149V0H65.2253V7.02605C65.8568 5.97346 67.4094 5.23664 69.0409 5.23664C72.4092 5.23664 75.067 8.21021 75.067 11.9469ZM59.3338 15.9729C58.3865 17.6834 56.2287 18.6833 53.5446 18.6833C49.7553 18.6833 46.7554 15.7361 46.7554 11.8941C46.7554 8.13112 49.7026 5.23649 53.4656 5.23649C56.9655 5.23649 59.7022 7.94691 59.7022 11.3941C59.7022 11.8415 59.6759 12.3415 59.597 12.8415H50.3079C50.65 14.6046 51.8604 15.5256 53.6235 15.5256C54.7814 15.5256 55.9919 14.9993 56.4392 14.2098L59.3338 15.9729ZM36.5013 11.3416L33.8698 18.4203H31.0015L26.3438 5.4997H30.3173L32.4751 12.5784L35.0539 5.4997H37.9486L40.5537 12.5784L42.6852 5.4997H46.6851L42.0274 18.4203H39.1064L36.5013 11.3416ZM55.9925 10.4734H50.3611C50.7032 9.07876 51.7295 8.23668 53.2821 8.23668C54.6505 8.23668 55.8346 9.18402 55.9925 10.4734ZM68.2235 15.1572C66.9341 15.1572 65.7762 14.473 65.2236 13.552V10.3942C65.7762 9.44689 66.9341 8.73639 68.2235 8.73639C70.0392 8.73639 71.4339 10.1048 71.4339 11.9468C71.4339 13.7888 70.0392 15.1572 68.2235 15.1572ZM86.6107 14.473C86.6107 16.9466 84.5055 18.6833 81.5056 18.6833C79.2952 18.6833 77.2689 18.157 75.7164 17.0518L76.8216 14.473C78.0321 15.3677 79.6109 15.8413 81.1898 15.8413C82.3477 15.8413 83.0845 15.394 83.0845 14.7098C83.0743 13.9772 82.0293 13.7482 80.7482 13.4675C78.7163 13.0223 76.0907 12.447 76.0584 9.5258C76.0321 7.10484 78.1899 5.23649 81.2425 5.23649C83.0582 5.23649 84.8739 5.68384 86.1633 6.71012L85.1107 9.39423C84.1108 8.6311 82.4793 8.05217 81.0846 8.05217C80.1372 8.05217 79.5057 8.49952 79.5057 9.07845C79.516 9.80819 80.5901 10.0963 81.9001 10.4478C83.9441 10.9962 86.5626 11.6986 86.6107 14.473ZM94.5768 18.6309C95.261 18.6309 95.9978 18.4993 96.4715 18.2625L96.2873 14.9731C95.9978 15.0784 95.4978 15.1573 95.1294 15.1573C94.0505 15.1573 93.1295 14.3942 93.1295 13.1837V9.02597H96.3136V5.49979H93.1295V2.10518H89.4191V5.49979H87.0245V9.02597H89.4191V13.3679C89.4191 16.7099 91.5506 18.6309 94.5768 18.6309ZM107.019 16.8939C106.387 17.9465 104.834 18.6833 103.203 18.6833C99.8346 18.6833 97.1769 15.6835 97.1769 11.9468C97.1769 8.21006 99.8346 5.23649 103.203 5.23649C104.834 5.23649 106.387 5.9733 107.019 7.02589V5.49964H110.729V18.4202H107.019V16.8939ZM104.017 15.1572C102.201 15.1572 100.806 13.7888 100.806 11.9468C100.806 10.1048 102.201 8.73639 104.017 8.73639C105.306 8.73639 106.464 9.44689 107.017 10.3942V13.552C106.464 14.473 105.306 15.1572 104.017 15.1572ZM125.406 14.973C124.432 17.2097 122.09 18.6833 119.327 18.6833C115.459 18.6833 112.538 15.815 112.538 11.9731C112.538 8.13112 115.459 5.23649 119.327 5.23649C121.853 5.23649 123.985 6.4996 125.011 8.42058L121.88 10.21C121.406 9.3416 120.459 8.78899 119.327 8.78899C117.485 8.78899 116.169 10.1574 116.169 11.9731C116.169 13.7625 117.485 15.1308 119.327 15.1308C120.59 15.1308 121.617 14.5256 122.117 13.4993L125.406 14.973ZM130.343 18.4204V12.6311L135.027 18.4204H139.79L134.001 11.7364L139.369 5.49979H134.816L130.343 10.8417V0H126.633V18.4204H130.343ZM150.862 14.473C150.862 16.9466 148.756 18.6833 145.756 18.6833C143.546 18.6833 141.52 18.157 139.967 17.0518L141.072 14.473C142.283 15.3677 143.862 15.8413 145.441 15.8413C146.599 15.8413 147.335 15.394 147.335 14.7098C147.325 13.9772 146.28 13.7482 144.999 13.4675C142.967 13.0223 140.342 12.447 140.309 9.5258C140.283 7.10484 142.441 5.23649 145.493 5.23649C147.309 5.23649 149.125 5.68384 150.414 6.71012L149.362 9.39423C148.362 8.6311 146.73 8.05217 145.335 8.05217C144.388 8.05217 143.757 8.49952 143.757 9.07845C143.767 9.80819 144.841 10.0963 146.151 10.4478C148.195 10.9962 150.813 11.6986 150.862 14.473Z" fill="black"/>
<path d="M18.2412 20.2656H11.1484V16.2119H14.1885V4.05273H11.1484V0H18.2412V20.2656Z" fill="#1255E6"/>
<path d="M0.000976562 0V20.2656H7.09375V16.2119H4.05371V4.05273H7.09375V0H0.000976562Z" fill="#1255E6"/>
</g>
<defs>
<clipPath id="clip0_3011_12039">
<rect width="150.864" height="20.2656" fill="white"/>
</clipPath>
</defs>
</svg>
